        <svg class="svg-mug-business-card standalone" width="150px" viewBox="218.89445990285986 115 112.21108019428033 153.1019983768739" preserveAspectRatio="none" style="width: auto; height: 40%;"><g style="fill: rgb(255, 255, 255);"><path d="M258.49277,260.22557l-13.45388,-8.49216l-12.02262,-7.63341c-4.19837,-3.33961 -6.29756,-8.11049 -6.29756,-14.40805v-79.00576c0.38167,5.15255 3.05337,9.92343 7.91966,14.31264c2.67169,2.38544 8.58758,6.20215 17.84309,11.35469c4.00754,2.1946 6.0113,6.10673 6.0113,11.54553zM322.99505,115.00001c-6.87007,0 -12.69054,2.38544 -17.55683,7.25174c-4.86629,4.86629 -7.25174,10.68677 -7.25174,17.55683v20.22853h-46.37295v-45.0371h-8.20591c-6.77465,0 -12.59512,2.38544 -17.46142,7.25174c-4.86629,4.86629 -7.25174,10.68677 -7.25174,17.55683c0,60.2085 0,90.16961 0,89.88337c0,8.77842 3.14878,15.64849 9.35093,20.51478l26.14442,16.60266c2.57628,1.6221 5.15255,1.71751 7.82424,0.28625c2.67169,-1.52668 4.00754,-3.8167 4.00754,-6.87007v-67.2694h31.9649v31.9649c0,7.34716 2.67169,13.64472 7.91966,18.89268c5.24797,5.24797 11.54553,7.91966 18.89268,7.91966h6.10673v-136.7334z"  style="fill: #293241;"></path></g></svg>
